<?xml version="1.0" encoding="utf-8"?>
<!-- Generator: Adobe Illustrator 27.8.1, SVG Export Plug-In . SVG Version: 6.00 Build 0)  -->
<svg version="1.1" id="Layer_1" xmlns="http://www.w3.org/2000/svg" xmlns:xlink="http://www.w3.org/1999/xlink" x="0px" y="0px"
	 viewBox="0 0 557.2 158.4" style="enable-background:new 0 0 557.2 158.4;" xml:space="preserve">
<style type="text/css">
	.st0{fill:#FFFFFF;}
</style>
<g>
	<path class="st0" d="M204.1,105.4c0.1,4.1,0.6,5.4,1.9,5.8c0.9,0.3,2,0.3,2.5,0.3c0.2,0,0.4,0.1,0.4,0.3c0,0.3-0.3,0.4-0.9,0.4
		c-2.8,0-4.8-0.1-5.3-0.1c-0.5,0-2.5,0.1-4.8,0.1c-0.5,0-0.8,0-0.8-0.4c0-0.2,0.1-0.3,0.4-0.3c0.4,0,1.3,0,2-0.3
		c1.2-0.3,1.5-1.8,1.5-6.3l0.1-28.6c0-2,0.1-2.5,0.6-2.5c0.4,0,1.2,1.1,1.7,1.6c0.8,0.8,8.2,8.9,15.9,17.1c4.9,5.3,10.4,11.4,12,13
		l-0.5-25.4c0-3.2-0.4-4.3-1.9-4.7c-0.9-0.2-2-0.2-2.5-0.2c-0.3,0-0.4-0.2-0.4-0.4c0-0.3,0.4-0.3,1-0.3c2.2,0,4.6,0.1,5.2,0.1
		c0.5,0,2.2-0.1,4.2-0.1c0.5,0,0.9,0,0.9,0.3c0,0.2-0.2,0.4-0.5,0.4c-0.2,0-0.6,0-1.2,0.1c-1.6,0.3-1.8,1.5-1.8,4.5l-0.1,29.3
		c0,3.3-0.1,3.5-0.5,3.5c-0.4,0-1-0.6-3.6-3.2c-0.5-0.5-7.7-7.8-13-13.5c-5.8-6.2-11.4-12.5-13-14.3L204.1,105.4z"/>
	<path class="st0" d="M242.2,92.3c0-6.6,0-7.8-0.1-9.1c-0.1-1.4-0.3-2.2-1.8-2.3c-0.3-0.1-1.1-0.1-1.5-0.1c-0.1,0-0.4-0.2-0.4-0.3
		c0-0.2,0.2-0.4,0.7-0.4c2,0,4.8,0.1,5.1,0.1c0.3,0,9.5,0,10.5,0c0.8,0,1.6-0.2,2-0.2c0.2,0,0.4-0.2,0.6-0.2c0.1,0,0.2,0.2,0.2,0.4
		c0,0.3-0.2,0.8-0.3,2c-0.1,0.4-0.1,2.3-0.3,2.8c0,0.2-0.2,0.5-0.4,0.5c-0.3,0-0.4-0.2-0.4-0.5c0-0.3-0.1-1-0.3-1.5
		c-0.3-0.7-0.7-1-3.1-1.3c-0.8-0.1-5.8-0.1-6.3-0.1c-0.2,0-0.2,0.1-0.2,0.4v11.5c0,0.3,0,0.5,0.2,0.5c0.5,0,6.3,0,7.3-0.1
		c1-0.1,1.7-0.2,2.1-0.6c0.3-0.3,0.5-0.6,0.6-0.6c0.2,0,0.3,0.1,0.3,0.4s-0.3,0.9-0.4,2.3c-0.1,0.9-0.2,2.4-0.2,2.8
		c0,0.3-0.1,0.8-0.4,0.8c-0.2,0-0.3-0.2-0.3-0.4c0-0.4,0-0.8-0.2-1.4c-0.2-0.6-0.6-1.1-2.2-1.3c-1.2-0.1-5.9-0.2-6.6-0.2
		c-0.2,0-0.3,0.1-0.3,0.3v3.5c0,1.4-0.1,6.4,0,7.2c0.1,2.8,0.9,3.4,5.2,3.4c1.1,0,3.2,0,4.4-0.4c1.1-0.5,1.7-1.2,2-2.9
		c0.1-0.5,0.2-0.7,0.4-0.7c0.2,0,0.3,0.4,0.3,0.7c0,0.3-0.4,3.2-0.6,4.1c-0.3,1.1-0.7,1.1-2.4,1.1c-3.3,0-5.8-0.1-7.6-0.2
		c-1.8-0.1-3-0.1-3.6-0.1c-0.1,0-1,0-1.9,0c-0.8,0-1.8,0.1-2.5,0.1c-0.4,0-0.7-0.1-0.7-0.3c0-0.1,0.1-0.4,0.4-0.4
		c0.4,0,0.9-0.2,1.3-0.2c0.8-0.2,1-1,1.1-2.2c0.2-1.8,0.2-5.1,0.2-9.2V92.3z"/>
	<path class="st0" d="M295.5,105.9h0.2c1.1-3.5,5-15.8,6.6-21.2c0.5-1.6,0.5-2.1,0.5-2.6c0-0.8-0.4-1.2-2.3-1.2
		c-0.3,0-0.4-0.2-0.4-0.4c0-0.2,0.2-0.3,0.8-0.3c2.2,0,4.1,0.1,4.5,0.1c0.3,0,2.2-0.1,3.5-0.1c0.4,0,0.6,0.1,0.6,0.2
		c0,0.2-0.1,0.5-0.4,0.5c-0.1,0-1,0-1.5,0.2c-1.3,0.5-2,2.1-2.8,4.5c-2,5.4-6.3,18.9-8,23.6c-1.1,3.1-1.4,3.6-1.9,3.6
		c-0.5,0-0.9-0.5-1.5-2.2l-8.6-23.2c-1.5,3.7-7.4,19.2-9,23.2c-0.7,1.8-1,2.2-1.5,2.2c-0.4,0-0.8-0.4-1.7-3.3l-7.8-25.2
		c-0.7-2.2-1.2-2.8-2.3-3.2c-0.6-0.2-1.7-0.2-2-0.2c-0.2,0-0.4-0.1-0.4-0.4c0-0.2,0.3-0.3,0.7-0.3c2.3,0,4.7,0.1,5.2,0.1
		c0.4,0,2.4-0.1,4.6-0.1c0.6,0,0.8,0.1,0.8,0.3c0,0.2-0.3,0.4-0.5,0.4c-0.4,0-1,0-1.5,0.2c-0.3,0.1-0.6,0.3-0.6,0.9
		c0,0.5,0.3,2,0.8,3.9c0.7,2.7,5.2,18.3,5.7,20h0.1l9.2-23.7c0.7-1.7,1-2,1.2-2c0.3,0,0.6,0.5,1.2,2L295.5,105.9z"/>
</g>
<path class="st0" d="M361.2,97.7c0,4.8,0,8.8,0.2,10.9c0.2,1.5,0.5,2.6,2,2.8c0.7,0.1,1.8,0.2,2.3,0.2c0.3,0,0.4,0.2,0.4,0.3
	c0,0.3-0.3,0.4-0.8,0.4c-2.8,0-5.9-0.2-6.2-0.2c-0.3,0-3.4,0.2-4.9,0.2c-0.6,0-0.8-0.1-0.8-0.4c0-0.2,0.1-0.3,0.4-0.3
	c0.5,0,1.1-0.1,1.5-0.2c1-0.2,1.3-1.3,1.5-2.8c0.3-2.1,0.3-6.1,0.3-10.9v-5.3c0-0.2-0.2-0.3-0.3-0.3h-21.3c-0.2,0-0.3,0-0.3,0.3v5.3
	c0,4.8,0,8.8,0.3,10.9c0.2,1.5,0.5,2.6,2,2.8c0.7,0.1,1.8,0.2,2.3,0.2c0.3,0,0.4,0.2,0.4,0.3c0,0.3-0.3,0.4-0.8,0.4
	c-2.8,0-5.9-0.2-6.2-0.2c-0.3,0-3.4,0.2-4.9,0.2c-0.6,0-0.8-0.1-0.8-0.4c0-0.2,0.1-0.3,0.4-0.3c0.5,0,1.1-0.1,1.5-0.2
	c1-0.2,1.3-1.3,1.5-2.8c0.3-2.1,0.3-6.1,0.3-10.9v-8.8c0-7.8,0-9.2-0.1-10.9c-0.1-1.7-0.5-2.5-2.2-2.9c-0.4-0.1-1.3-0.2-1.7-0.2
	c-0.2,0-0.4-0.1-0.4-0.3c0-0.3,0.3-0.4,0.8-0.4c2.3,0,5.4,0.2,5.7,0.2c0.3,0,3.4-0.2,4.9-0.2c0.6,0,0.8,0.1,0.8,0.4
	c0,0.2-0.2,0.3-0.4,0.3c-0.4,0-0.7,0.1-1.3,0.2c-1.4,0.3-1.8,1.1-1.9,2.9c-0.1,1.6-0.1,3-0.1,10.9v1.1c0,0.3,0.2,0.3,0.3,0.3h21.3
	c0.2,0,0.3,0,0.3-0.3v-1.1c0-7.8,0-9.2-0.1-10.9c-0.1-1.7-0.5-2.5-2.2-2.9c-0.4-0.1-1.3-0.2-1.7-0.2c-0.2,0-0.4-0.1-0.4-0.3
	c0-0.3,0.3-0.4,0.8-0.4c2.3,0,5.4,0.2,5.7,0.2c0.3,0,3.4-0.2,4.9-0.2c0.6,0,0.8,0.1,0.8,0.4c0,0.2-0.2,0.3-0.4,0.3
	c-0.4,0-0.7,0.1-1.3,0.2c-1.4,0.3-1.8,1.1-1.9,2.9c-0.1,1.6-0.1,3-0.1,10.9V97.7z"/>
<path class="st0" d="M383.2,79.4c10,0,17.5,6.1,17.5,16c0,9.5-7.1,17.4-17.7,17.4c-12.1,0-17.3-9.1-17.3-16.8
	C365.7,89.2,371,79.4,383.2,79.4z M384.2,111.1c4,0,12-2.1,12-14.5C396.2,86.4,390,81,383,81c-7.4,0-12.7,4.6-12.7,13.9
	C370.3,104.9,376.3,111.1,384.2,111.1z"/>
<path class="st0" d="M406.5,92.4c0-6.6,0-7.8-0.1-9.2c-0.1-1.5-0.4-2.2-1.8-2.4c-0.4-0.1-1.1-0.1-1.5-0.1c-0.2,0-0.4-0.2-0.4-0.4
	c0-0.2,0.2-0.4,0.7-0.4c2,0,5,0.1,5.2,0.1c0.5,0,4.2-0.1,5.5-0.1c2.8,0,5.9,0.3,8.2,1.9c1.1,0.8,3.1,2.9,3.1,5.8
	c0,3.2-1.3,6.2-5.4,9.7c3.6,4.5,6.7,8.4,9.2,11.1c2.4,2.4,3.8,2.8,4.9,3c0.9,0.2,1.3,0.2,1.6,0.2s0.4,0.2,0.4,0.4
	c0,0.3-0.3,0.4-1.1,0.4h-2.8c-2.5,0-3.6-0.3-4.7-0.9c-1.9-1-3.5-3.1-6-6.3c-1.9-2.3-3.8-5.1-4.8-6.2c-0.2-0.2-0.3-0.3-0.6-0.3
	l-5.6-0.1c-0.2,0-0.3,0.1-0.3,0.4v1c0,4.1,0,7.4,0.2,9.2c0.2,1.3,0.4,2.1,1.8,2.3c0.6,0.1,1.6,0.2,2,0.2c0.3,0,0.4,0.2,0.4,0.4
	c0,0.2-0.2,0.4-0.7,0.4c-2.4,0-5.2-0.2-5.4-0.2c0,0-3,0.2-4.4,0.2c-0.5,0-0.7-0.1-0.7-0.4c0-0.2,0.1-0.4,0.4-0.4
	c0.4,0,1-0.1,1.4-0.2c0.9-0.2,1-1,1.2-2.3c0.3-1.8,0.3-5.1,0.3-9.2V92.4z M410.3,96c0,0.3,0.1,0.4,0.3,0.6c0.7,0.4,2.9,0.7,4.9,0.7
	c1.1,0,2.3-0.1,3.3-0.8c1.5-1,2.7-3.3,2.7-6.5c0-5.3-2.9-8.4-7.6-8.4c-1.3,0-2.7,0.2-3.2,0.3c-0.2,0.1-0.4,0.3-0.4,0.5V96z"/>
<path class="st0" d="M444.3,99.9c0,4.1,0,7.5,0.2,9.2c0.2,1.3,0.3,2.1,1.6,2.3c0.7,0.1,1.6,0.2,2,0.2c0.3,0,0.4,0.2,0.4,0.4
	c0,0.2-0.2,0.4-0.7,0.4c-2.5,0-5.3-0.2-5.5-0.2c-0.3,0-3,0.2-4.4,0.2c-0.5,0-0.7-0.1-0.7-0.4c0-0.2,0.1-0.4,0.4-0.4
	c0.4,0,1-0.1,1.4-0.2c0.9-0.2,1-1,1.2-2.3c0.2-1.8,0.3-5.1,0.3-9.2v-7.5c0-6.6,0-7.8-0.1-9.2c-0.1-1.5-0.5-2.1-1.4-2.3
	c-0.5-0.1-1.1-0.2-1.4-0.2c-0.2,0-0.4-0.2-0.4-0.4c0-0.2,0.2-0.4,0.7-0.4c1.5,0,4.2,0.1,4.5,0.1c0.2,0,3.1-0.1,4.4-0.1
	c0.5,0,0.7,0.1,0.7,0.4c0,0.2-0.2,0.4-0.4,0.4c-0.3,0-0.6,0-1.1,0.1c-1.2,0.3-1.5,0.9-1.6,2.4c0,1.4,0,2.6,0,9.2V99.9z"/>
<path class="st0" d="M466.8,110.3c4.7,0,5.9-0.8,6.9-2c0.5-0.6,0.8-1.7,0.9-2.3c0.1-0.4,0.3-0.7,0.5-0.7c0.3,0,0.4,0.2,0.4,1
	c0,1.4-0.6,3.9-0.9,4.9c-0.3,1.1-0.3,1.1-1.3,1.1c-7.4,0-14.9-0.2-22.6-0.2c-0.5,0-0.8,0-0.8-0.4c0-0.2,0.1-0.5,0.6-1.3
	c6.6-9.6,13.2-19.1,19.2-28.6h-9.3c-2.3,0-4.9-0.1-6.3,0.7c-1.6,0.8-2.4,2.4-2.5,3.4c-0.1,0.7-0.4,0.8-0.6,0.8
	c-0.2,0-0.3-0.2-0.3-0.6c0-0.5,0.7-4.4,0.9-5.7c0.1-0.6,0.2-0.8,0.4-0.8c0.4,0,0.7,0.3,1.9,0.3c4.2,0.2,6.3,0.1,7.7,0.1H474
	c0.7,0,0.9,0.1,0.9,0.4c0,0.2,0,0.5-0.3,0.8c-6.4,9.8-12.9,19.4-19.5,29.1H466.8z"/>
<path class="st0" d="M496,79.4c10,0,17.5,6.1,17.5,16c0,9.5-7.1,17.4-17.7,17.4c-12.1,0-17.3-9.1-17.3-16.8
	C478.4,89.2,483.8,79.4,496,79.4z M497,111.1c4,0,12-2.1,12-14.5c0-10.3-6.2-15.6-13.2-15.6c-7.4,0-12.7,4.6-12.7,13.9
	C483,104.9,489,111.1,497,111.1z"/>
<path class="st0" d="M524.6,106.5c0.1,3.5,0.5,4.6,1.7,4.9c0.8,0.2,1.8,0.3,2.2,0.3c0.2,0,0.4,0.2,0.4,0.4c0,0.3-0.3,0.4-0.8,0.4
	c-2.5,0-4.3-0.2-4.7-0.2c-0.4,0-2.3,0.2-4.3,0.2c-0.5,0-0.7-0.1-0.7-0.4c0-0.2,0.2-0.4,0.4-0.4c0.4,0,1.2,0,1.8-0.3
	c1.1-0.3,1.3-1.5,1.3-5.3V81.6c0-1.7,0.3-2.2,0.6-2.2c0.5,0,1.3,0.9,1.7,1.3c0.7,0.7,7.1,7.5,14,14.6c4.4,4.5,9.1,9.6,10.5,11
	l-0.5-21.4c0-2.8-0.3-3.7-1.7-4c-0.8-0.2-1.8-0.2-2.2-0.2c-0.3,0-0.4-0.3-0.4-0.4c0-0.3,0.4-0.3,0.9-0.3c2,0,4.1,0.1,4.6,0.1
	c0.5,0,2-0.1,3.8-0.1c0.5,0,0.8,0.1,0.8,0.3c0,0.2-0.2,0.4-0.5,0.4c-0.2,0-0.6,0-1.1,0.1c-1.5,0.3-1.6,1.2-1.6,3.7l-0.1,25
	c0,2.8-0.1,3.1-0.4,3.1c-0.5,0-0.9-0.4-3.4-2.6c-0.5-0.4-6.8-6.7-11.5-11.6c-5.1-5.4-10.1-10.6-11.5-12.1L524.6,106.5z"/>
<g>
	<path class="st0" d="M407.4,121.1v10.2H406v-10.2H407.4z"/>
	<path class="st0" d="M409.4,129.9c0.4,0.2,1.1,0.5,1.8,0.5c1,0,1.4-0.5,1.4-1.1c0-0.6-0.4-1-1.3-1.3c-1.3-0.5-1.9-1.2-1.9-2.1
		c0-1.2,1-2.1,2.5-2.1c0.7,0,1.4,0.2,1.8,0.5l-0.3,1c-0.3-0.2-0.8-0.4-1.5-0.4c-0.8,0-1.2,0.5-1.2,1c0,0.6,0.4,0.9,1.4,1.3
		c1.3,0.5,1.9,1.1,1.9,2.2c0,1.3-1,2.2-2.7,2.2c-0.8,0-1.5-0.2-2.1-0.5L409.4,129.9z"/>
	<path class="st0" d="M415.6,120.6h1.3v10.7h-1.3V120.6z"/>
	<path class="st0" d="M424.2,129.5c0,0.6,0,1.3,0.1,1.8h-1.2l-0.1-0.9h0c-0.4,0.6-1.2,1.1-2.2,1.1c-1.5,0-2.2-1-2.2-2.1
		c0-1.8,1.6-2.7,4.4-2.7v-0.2c0-0.6-0.2-1.7-1.7-1.7c-0.7,0-1.4,0.2-1.9,0.5l-0.3-0.9c0.6-0.4,1.5-0.6,2.4-0.6c2.2,0,2.8,1.5,2.8,3
		V129.5z M422.9,127.6c-1.4,0-3.1,0.2-3.1,1.6c0,0.9,0.6,1.3,1.2,1.3c1,0,1.6-0.6,1.8-1.2c0-0.1,0.1-0.3,0.1-0.4V127.6z"/>
	<path class="st0" d="M426.4,126c0-0.8,0-1.4-0.1-2h1.2l0.1,1.2h0c0.4-0.7,1.1-1.3,2.3-1.3c1,0,1.7,0.6,2.1,1.5h0
		c0.2-0.4,0.5-0.7,0.8-1c0.4-0.3,0.9-0.5,1.6-0.5c1,0,2.4,0.6,2.4,3.2v4.3h-1.3v-4.1c0-1.4-0.5-2.2-1.6-2.2c-0.8,0-1.3,0.6-1.6,1.2
		c-0.1,0.2-0.1,0.4-0.1,0.7v4.5h-1.3v-4.4c0-1.2-0.5-2-1.5-2c-0.8,0-1.4,0.7-1.6,1.3c-0.1,0.2-0.1,0.4-0.1,0.6v4.4h-1.3V126z"/>
	<path class="st0" d="M439.6,122.6c-0.5,0-0.8-0.4-0.8-0.9c0-0.5,0.3-0.8,0.9-0.8s0.8,0.4,0.8,0.8
		C440.5,122.2,440.1,122.6,439.6,122.6L439.6,122.6z M438.9,131.3V124h1.3v7.3H438.9z"/>
	<path class="st0" d="M447.7,131c-0.3,0.2-1.1,0.4-2.1,0.4c-2.2,0-3.6-1.5-3.6-3.7c0-2.2,1.5-3.9,3.9-3.9c0.8,0,1.5,0.2,1.8,0.4
		l-0.3,1c-0.3-0.2-0.8-0.3-1.5-0.3c-1.7,0-2.6,1.3-2.6,2.8c0,1.7,1.1,2.7,2.5,2.7c0.8,0,1.3-0.2,1.6-0.3L447.7,131z"/>
	<path class="st0" d="M452.3,129.7c0.6,0.4,1.4,0.7,2.3,0.7c1.3,0,2.1-0.7,2.1-1.7c0-0.9-0.5-1.5-1.9-2c-1.7-0.6-2.7-1.5-2.7-2.9
		c0-1.6,1.3-2.8,3.3-2.8c1,0,1.8,0.2,2.2,0.5l-0.4,1.1c-0.3-0.2-1-0.5-1.9-0.5c-1.4,0-1.9,0.8-1.9,1.5c0,0.9,0.6,1.4,2,2
		c1.7,0.7,2.6,1.5,2.6,3c0,1.6-1.1,2.9-3.5,2.9c-1,0-2.1-0.3-2.6-0.7L452.3,129.7z"/>
	<path class="st0" d="M465.1,129.5c0,0.6,0,1.3,0.1,1.8H464l-0.1-0.9h0c-0.4,0.6-1.2,1.1-2.2,1.1c-1.5,0-2.2-1-2.2-2.1
		c0-1.8,1.6-2.7,4.4-2.7v-0.2c0-0.6-0.2-1.7-1.7-1.7c-0.7,0-1.4,0.2-1.9,0.5l-0.3-0.9c0.6-0.4,1.5-0.6,2.4-0.6c2.2,0,2.8,1.5,2.8,3
		V129.5z M463.8,127.6c-1.4,0-3.1,0.2-3.1,1.6c0,0.9,0.6,1.3,1.2,1.3c1,0,1.6-0.6,1.8-1.2c0-0.1,0.1-0.3,0.1-0.4V127.6z"/>
	<path class="st0" d="M468.8,122.2v1.8h1.9v1h-1.9v3.9c0,0.9,0.3,1.4,1,1.4c0.4,0,0.6,0,0.8-0.1l0.1,1c-0.3,0.1-0.7,0.2-1.2,0.2
		c-0.6,0-1.1-0.2-1.4-0.6c-0.4-0.4-0.5-1.1-0.5-1.9v-4h-1.1v-1h1.1v-1.3L468.8,122.2z"/>
	<path class="st0" d="M478.3,129.3c0,0.8,0,1.4,0.1,2h-1.2l-0.1-1.2h0c-0.3,0.6-1.1,1.4-2.4,1.4c-1.1,0-2.5-0.6-2.5-3.2V124h1.3v4
		c0,1.4,0.4,2.3,1.6,2.3c0.9,0,1.5-0.6,1.8-1.2c0.1-0.2,0.1-0.4,0.1-0.7V124h1.3V129.3z"/>
	<path class="st0" d="M480.5,126.3c0-0.9,0-1.6-0.1-2.3h1.2l0.1,1.4h0c0.3-1,1.1-1.6,2-1.6c0.1,0,0.2,0,0.4,0v1.2
		c-0.2,0-0.3,0-0.5,0c-0.9,0-1.6,0.7-1.8,1.7c0,0.2,0,0.4,0,0.6v3.9h-1.3L480.5,126.3z"/>
	<path class="st0" d="M491.6,120.6v8.8c0,0.6,0,1.4,0.1,1.9h-1.2l-0.1-1.3h0c-0.4,0.8-1.3,1.4-2.5,1.4c-1.8,0-3.1-1.5-3.1-3.7
		c0-2.4,1.5-3.9,3.3-3.9c1.1,0,1.9,0.5,2.2,1.1h0v-4.3H491.6z M490.3,127c0-0.2,0-0.4-0.1-0.6c-0.2-0.8-0.9-1.5-1.9-1.5
		c-1.4,0-2.2,1.2-2.2,2.8c0,1.5,0.7,2.7,2.2,2.7c0.9,0,1.7-0.6,1.9-1.6c0-0.2,0.1-0.4,0.1-0.6V127z"/>
	<path class="st0" d="M499,129.5c0,0.6,0,1.3,0.1,1.8h-1.2l-0.1-0.9h0c-0.4,0.6-1.2,1.1-2.2,1.1c-1.5,0-2.2-1-2.2-2.1
		c0-1.8,1.6-2.7,4.4-2.7v-0.2c0-0.6-0.2-1.7-1.7-1.7c-0.7,0-1.4,0.2-1.9,0.5l-0.3-0.9c0.6-0.4,1.5-0.6,2.4-0.6c2.2,0,2.8,1.5,2.8,3
		V129.5z M497.7,127.6c-1.4,0-3.1,0.2-3.1,1.6c0,0.9,0.6,1.3,1.2,1.3c1,0,1.6-0.6,1.8-1.2c0-0.1,0.1-0.3,0.1-0.4V127.6z"/>
	<path class="st0" d="M501.4,124l1.6,4.3c0.2,0.5,0.4,1.1,0.5,1.5h0c0.1-0.4,0.3-1,0.5-1.5l1.4-4.3h1.4l-2,5.2
		c-1,2.5-1.6,3.8-2.5,4.6c-0.7,0.6-1.3,0.8-1.6,0.8l-0.3-1.1c0.3-0.1,0.8-0.3,1.2-0.6c0.4-0.3,0.8-0.8,1.1-1.5
		c0.1-0.1,0.1-0.2,0.1-0.3c0-0.1,0-0.2-0.1-0.3L500,124H501.4z"/>
	<path class="st0" d="M511.1,129.7c0.6,0.4,1.4,0.7,2.3,0.7c1.3,0,2.1-0.7,2.1-1.7c0-0.9-0.5-1.5-1.9-2c-1.7-0.6-2.7-1.5-2.7-2.9
		c0-1.6,1.3-2.8,3.3-2.8c1,0,1.8,0.2,2.2,0.5l-0.4,1.1c-0.3-0.2-1-0.5-1.9-0.5c-1.4,0-1.9,0.8-1.9,1.5c0,0.9,0.6,1.4,2,2
		c1.7,0.7,2.6,1.5,2.6,3c0,1.6-1.1,2.9-3.5,2.9c-1,0-2.1-0.3-2.6-0.7L511.1,129.7z"/>
	<path class="st0" d="M523.9,131c-0.3,0.2-1.1,0.4-2.1,0.4c-2.2,0-3.6-1.5-3.6-3.7c0-2.2,1.5-3.9,3.9-3.9c0.8,0,1.5,0.2,1.8,0.4
		l-0.3,1c-0.3-0.2-0.8-0.3-1.5-0.3c-1.7,0-2.6,1.3-2.6,2.8c0,1.7,1.1,2.7,2.5,2.7c0.8,0,1.3-0.2,1.6-0.3L523.9,131z"/>
	<path class="st0" d="M525.4,120.6h1.3v4.6h0c0.2-0.4,0.5-0.7,1-0.9c0.4-0.2,0.9-0.4,1.4-0.4c1,0,2.5,0.6,2.5,3.1v4.3h-1.3v-4.2
		c0-1.2-0.4-2.2-1.7-2.2c-0.9,0-1.5,0.6-1.8,1.3c-0.1,0.2-0.1,0.4-0.1,0.6v4.4h-1.3V120.6z"/>
	<path class="st0" d="M536.8,131.4c-2,0-3.5-1.4-3.5-3.8c0-2.4,1.6-3.9,3.6-3.9c2.1,0,3.5,1.5,3.5,3.7
		C540.4,130.3,538.5,131.4,536.8,131.4L536.8,131.4z M536.8,130.5c1.3,0,2.2-1.2,2.2-2.9c0-1.2-0.6-2.8-2.2-2.8
		c-1.6,0-2.2,1.4-2.2,2.8C534.6,129.2,535.5,130.5,536.8,130.5L536.8,130.5z"/>
	<path class="st0" d="M545.1,131.4c-2,0-3.5-1.4-3.5-3.8c0-2.4,1.6-3.9,3.6-3.9c2.1,0,3.5,1.5,3.5,3.7
		C548.7,130.3,546.8,131.4,545.1,131.4L545.1,131.4z M545.1,130.5c1.3,0,2.2-1.2,2.2-2.9c0-1.2-0.6-2.8-2.2-2.8
		c-1.6,0-2.2,1.4-2.2,2.8C542.9,129.2,543.8,130.5,545.1,130.5L545.1,130.5z"/>
	<path class="st0" d="M550.4,120.6h1.3v10.7h-1.3V120.6z"/>
</g>
<g>
	<path class="st0" d="M47.9,63.7C36.3,77.3,17.2,80.7,1.9,73c1.8,2.5,3.9,4.8,6.3,6.9c16,13.7,40,11.9,53.7-4.1
		c13.7-16,11.9-40-4.1-53.7c-2.4-2.1-5-3.8-7.8-5.2C60,30.8,59.5,50.2,47.9,63.7z"/>
</g>
<path class="st0" d="M29,37.7c3.4,2.9,3.8,8.1,0.9,11.5c-2.9,3.4-8.1,3.8-11.5,0.9c-3.4-2.9-3.8-8.1-0.9-11.5
	C20.4,35.1,25.6,34.7,29,37.7z"/>
<g>
	<path class="st0" d="M116.8,40.2c17.5,3.6,34.6-5.4,42-20.8c0.1,3.1-0.1,6.2-0.8,9.3c-4.3,20.6-24.4,33.9-45,29.6
		c-20.6-4.2-33.9-24.4-29.6-45c0.6-3.1,1.7-6.1,3-8.8C87.2,21.5,99.3,36.6,116.8,40.2z"/>
</g>
<path class="st0" d="M115.8,8c-0.9,4.4,1.9,8.8,6.4,9.7c4.4,0.9,8.8-1.9,9.7-6.4c0.9-4.4-1.9-8.8-6.4-9.7
	C121.1,0.7,116.7,3.6,115.8,8z"/>
<g>
	<path class="st0" d="M66.5,118c-17.5-3.6-34.6,5.4-42,20.8c-0.1-3.1,0.1-6.2,0.8-9.3c4.2-20.6,24.4-33.9,45-29.6
		c20.6,4.2,33.9,24.4,29.6,45c-0.6,3.1-1.7,6.1-3,8.8C96.1,136.7,84,121.7,66.5,118z"/>
</g>
<path class="st0" d="M67.5,150.3c0.9-4.4-1.9-8.8-6.4-9.7c-4.4-0.9-8.8,1.9-9.7,6.4c-0.9,4.4,1.9,8.8,6.4,9.7
	C62.2,157.5,66.5,154.7,67.5,150.3z"/>
<g>
	<path class="st0" d="M135.4,94.5c11.6-13.6,30.7-16.9,46-9.3c-1.8-2.5-3.9-4.8-6.3-6.9c-16-13.7-40-11.9-53.7,4.1
		c-13.7,16-11.9,40,4.1,53.7c2.4,2.1,5,3.8,7.8,5.2C123.3,127.4,123.8,108,135.4,94.5z"/>
</g>
<path class="st0" d="M154.3,120.6c-3.4-2.9-3.8-8.1-0.9-11.6c2.9-3.4,8.1-3.8,11.5-0.9c3.4,2.9,3.8,8.1,0.9,11.5
	C162.9,123.1,157.7,123.5,154.3,120.6z"/>
</svg>
