<?xml version="1.0" encoding="utf-8"?>
<!-- Generator: Adobe Illustrator 27.8.1, SVG Export Plug-In . SVG Version: 6.00 Build 0)  -->
<svg version="1.1" id="Layer_1" xmlns="http://www.w3.org/2000/svg" xmlns:xlink="http://www.w3.org/1999/xlink" x="0px" y="0px"
	 viewBox="0 0 476.7 89" style="enable-background:new 0 0 476.7 89;" xml:space="preserve">
<style type="text/css">
	.st0{fill:#FFFFFF;}
</style>
<g>
	<path class="st0" d="M125.1,32.3c0.1,4.1,0.6,5.4,1.9,5.8c0.9,0.3,2,0.3,2.5,0.3c0.2,0,0.4,0.1,0.4,0.3c0,0.3-0.3,0.4-0.9,0.4
		c-2.8,0-4.8-0.1-5.3-0.1c-0.5,0-2.5,0.1-4.8,0.1c-0.5,0-0.8,0-0.8-0.4c0-0.2,0.1-0.3,0.4-0.3c0.4,0,1.3,0,2-0.3
		c1.2-0.3,1.5-1.8,1.5-6.3l0.1-28.6c0-2,0.1-2.5,0.6-2.5c0.4,0,1.2,1.1,1.7,1.6c0.8,0.8,8.2,8.9,15.9,17.1c4.9,5.3,10.4,11.4,12,13
		L151.8,7c0-3.2-0.4-4.3-1.9-4.7c-0.9-0.2-2-0.2-2.5-0.2c-0.3,0-0.4-0.2-0.4-0.4c0-0.3,0.4-0.3,1-0.3c2.2,0,4.6,0.1,5.2,0.1
		c0.5,0,2.2-0.1,4.2-0.1c0.5,0,0.9,0,0.9,0.3c0,0.2-0.2,0.4-0.5,0.4c-0.2,0-0.6,0-1.2,0.1c-1.6,0.3-1.8,1.5-1.8,4.5l-0.1,29.3
		c0,3.3-0.1,3.5-0.5,3.5c-0.4,0-1-0.6-3.6-3.2c-0.5-0.5-7.7-7.8-13-13.5c-5.8-6.2-11.4-12.5-13-14.3L125.1,32.3z"/>
	<path class="st0" d="M163.3,19.3c0-6.6,0-7.8-0.1-9.1c-0.1-1.4-0.3-2.2-1.8-2.3c-0.3-0.1-1.1-0.1-1.5-0.1c-0.1,0-0.4-0.2-0.4-0.3
		c0-0.2,0.2-0.4,0.7-0.4c2,0,4.8,0.1,5.1,0.1c0.3,0,9.5,0,10.5,0c0.8,0,1.6-0.2,2-0.2c0.2,0,0.4-0.2,0.6-0.2c0.1,0,0.2,0.2,0.2,0.4
		c0,0.3-0.2,0.8-0.3,2c-0.1,0.4-0.1,2.3-0.3,2.8c0,0.2-0.2,0.5-0.4,0.5c-0.3,0-0.4-0.2-0.4-0.5c0-0.3-0.1-1-0.3-1.5
		c-0.3-0.7-0.7-1-3.1-1.3c-0.8-0.1-5.8-0.1-6.3-0.1c-0.2,0-0.2,0.1-0.2,0.4v11.5c0,0.3,0,0.5,0.2,0.5c0.5,0,6.3,0,7.3-0.1
		c1-0.1,1.7-0.2,2.1-0.6c0.3-0.3,0.5-0.6,0.6-0.6c0.2,0,0.3,0.1,0.3,0.4s-0.3,0.9-0.4,2.3c-0.1,0.9-0.2,2.4-0.2,2.8
		c0,0.3-0.1,0.8-0.4,0.8c-0.2,0-0.3-0.2-0.3-0.4c0-0.4,0-0.8-0.2-1.4c-0.2-0.6-0.6-1.1-2.2-1.3c-1.2-0.1-5.9-0.2-6.6-0.2
		c-0.2,0-0.3,0.1-0.3,0.3v3.5c0,1.4-0.1,6.4,0,7.2c0.1,2.8,0.9,3.4,5.2,3.4c1.1,0,3.2,0,4.4-0.4c1.1-0.5,1.7-1.2,2-2.9
		c0.1-0.5,0.2-0.7,0.4-0.7c0.2,0,0.3,0.4,0.3,0.7c0,0.3-0.4,3.2-0.6,4.1c-0.3,1.1-0.7,1.1-2.4,1.1c-3.3,0-5.8-0.1-7.6-0.2
		c-1.8-0.1-3-0.1-3.6-0.1c-0.1,0-1,0-1.9,0c-0.8,0-1.8,0.1-2.5,0.1c-0.4,0-0.7-0.1-0.7-0.3c0-0.1,0.1-0.4,0.4-0.4
		c0.4,0,0.9-0.2,1.3-0.2c0.8-0.2,1-1,1.1-2.2c0.2-1.8,0.2-5.1,0.2-9.2V19.3z"/>
	<path class="st0" d="M216.6,32.8h0.2c1.1-3.5,5-15.8,6.6-21.2c0.5-1.6,0.5-2.1,0.5-2.6c0-0.8-0.4-1.3-2.3-1.3
		c-0.3,0-0.4-0.2-0.4-0.4c0-0.2,0.2-0.3,0.8-0.3c2.2,0,4.1,0.1,4.5,0.1c0.3,0,2.2-0.1,3.5-0.1c0.4,0,0.6,0.1,0.6,0.2
		c0,0.2-0.1,0.5-0.4,0.5c-0.1,0-1,0-1.5,0.2c-1.3,0.5-2,2.1-2.8,4.5c-2,5.4-6.3,18.9-8,23.6c-1.1,3.1-1.4,3.6-1.9,3.6
		c-0.5,0-0.9-0.5-1.5-2.2l-8.6-23.2c-1.5,3.7-7.4,19.2-9,23.2c-0.7,1.8-1,2.2-1.5,2.2c-0.4,0-0.8-0.4-1.7-3.3l-7.8-25.2
		c-0.7-2.2-1.2-2.8-2.3-3.2c-0.6-0.2-1.7-0.2-2-0.2c-0.2,0-0.4-0.1-0.4-0.4c0-0.2,0.3-0.3,0.7-0.3c2.3,0,4.7,0.1,5.2,0.1
		c0.4,0,2.4-0.1,4.6-0.1c0.6,0,0.8,0.1,0.8,0.3c0,0.2-0.3,0.4-0.5,0.4c-0.4,0-1,0-1.5,0.2c-0.3,0.1-0.6,0.3-0.6,0.9
		c0,0.5,0.3,2,0.8,3.9c0.7,2.7,5.2,18.3,5.7,20h0.1l9.2-23.7c0.7-1.7,1-2,1.2-2c0.3,0,0.6,0.5,1.2,2L216.6,32.8z"/>
</g>
<path class="st0" d="M282.3,24.7c0,4.8,0,8.8,0.2,10.9c0.2,1.5,0.5,2.6,2,2.8c0.7,0.1,1.8,0.2,2.3,0.2c0.3,0,0.4,0.2,0.4,0.3
	c0,0.3-0.3,0.4-0.8,0.4c-2.8,0-5.9-0.2-6.2-0.2c-0.3,0-3.4,0.2-4.9,0.2c-0.6,0-0.8-0.1-0.8-0.4c0-0.2,0.1-0.3,0.4-0.3
	c0.5,0,1.1-0.1,1.5-0.2c1-0.2,1.3-1.3,1.5-2.8c0.3-2.1,0.3-6.1,0.3-10.9v-5.3c0-0.2-0.2-0.3-0.3-0.3h-21.3c-0.2,0-0.3,0-0.3,0.3v5.3
	c0,4.8,0,8.8,0.3,10.9c0.2,1.5,0.5,2.6,2,2.8c0.7,0.1,1.8,0.2,2.3,0.2c0.3,0,0.4,0.2,0.4,0.3c0,0.3-0.3,0.4-0.8,0.4
	c-2.8,0-5.9-0.2-6.2-0.2c-0.3,0-3.4,0.2-4.9,0.2c-0.6,0-0.8-0.1-0.8-0.4c0-0.2,0.1-0.3,0.4-0.3c0.5,0,1.1-0.1,1.5-0.2
	c1-0.2,1.3-1.3,1.5-2.8c0.3-2.1,0.3-6.1,0.3-10.9v-8.8c0-7.8,0-9.2-0.1-10.9c-0.1-1.7-0.5-2.5-2.2-2.9C249.3,2,248.4,2,247.9,2
	c-0.2,0-0.4-0.1-0.4-0.3c0-0.3,0.3-0.4,0.8-0.4c2.3,0,5.4,0.2,5.7,0.2c0.3,0,3.4-0.2,4.9-0.2c0.6,0,0.8,0.1,0.8,0.4
	c0,0.2-0.2,0.3-0.4,0.3c-0.4,0-0.7,0.1-1.3,0.2c-1.4,0.3-1.8,1.1-1.9,2.9c-0.1,1.6-0.1,3-0.1,10.9v1.1c0,0.3,0.2,0.3,0.3,0.3h21.3
	c0.2,0,0.3,0,0.3-0.3v-1.1c0-7.8,0-9.2-0.1-10.9c-0.1-1.7-0.5-2.5-2.2-2.9C275.4,2,274.5,2,274.1,2c-0.2,0-0.4-0.1-0.4-0.3
	c0-0.3,0.3-0.4,0.8-0.4c2.3,0,5.4,0.2,5.7,0.2c0.3,0,3.4-0.2,4.9-0.2c0.6,0,0.8,0.1,0.8,0.4c0,0.2-0.2,0.3-0.4,0.3
	c-0.4,0-0.7,0.1-1.3,0.2c-1.4,0.3-1.8,1.1-1.9,2.9c-0.1,1.6-0.1,3-0.1,10.9V24.7z"/>
<path class="st0" d="M304.3,6.3c10,0,17.5,6.1,17.5,16c0,9.5-7.1,17.4-17.7,17.4c-12.1,0-17.3-9.1-17.3-16.8
	C286.8,16.1,292.1,6.3,304.3,6.3z M305.3,38c4,0,12-2.1,12-14.5c0-10.3-6.2-15.6-13.2-15.6c-7.4,0-12.7,4.6-12.7,13.9
	C291.3,31.8,297.3,38,305.3,38z"/>
<path class="st0" d="M327.6,19.3c0-6.6,0-7.8-0.1-9.2c-0.1-1.5-0.4-2.2-1.8-2.4c-0.4-0.1-1.1-0.1-1.5-0.1c-0.2,0-0.4-0.2-0.4-0.4
	c0-0.2,0.2-0.4,0.7-0.4c2,0,5,0.1,5.2,0.1c0.5,0,4.2-0.1,5.5-0.1c2.8,0,5.9,0.3,8.2,1.9c1.1,0.8,3.1,2.9,3.1,5.8
	c0,3.2-1.3,6.2-5.4,9.7c3.6,4.5,6.7,8.4,9.2,11.1c2.4,2.4,3.8,2.8,4.9,3c0.9,0.2,1.3,0.2,1.6,0.2c0.3,0,0.4,0.2,0.4,0.4
	c0,0.3-0.3,0.4-1.1,0.4h-2.8c-2.5,0-3.6-0.3-4.7-0.9c-1.9-1-3.5-3.1-6-6.3c-1.9-2.3-3.8-5.1-4.8-6.2c-0.2-0.2-0.3-0.3-0.6-0.3
	l-5.6-0.1c-0.2,0-0.3,0.1-0.3,0.4v1c0,4.1,0,7.4,0.2,9.2c0.2,1.3,0.4,2.1,1.8,2.3c0.6,0.1,1.6,0.2,2,0.2c0.3,0,0.4,0.2,0.4,0.4
	c0,0.2-0.2,0.4-0.7,0.4c-2.4,0-5.2-0.2-5.4-0.2c0,0-3,0.2-4.4,0.2c-0.5,0-0.7-0.1-0.7-0.4c0-0.2,0.1-0.4,0.4-0.4
	c0.4,0,1-0.1,1.4-0.2c0.9-0.2,1-1,1.2-2.3c0.3-1.8,0.3-5.1,0.3-9.2V19.3z M331.4,22.9c0,0.3,0.1,0.4,0.3,0.6
	c0.7,0.4,2.9,0.7,4.9,0.7c1.1,0,2.3-0.1,3.3-0.8c1.5-1,2.7-3.3,2.7-6.5c0-5.3-2.9-8.4-7.6-8.4c-1.3,0-2.7,0.2-3.2,0.3
	c-0.2,0.1-0.4,0.3-0.4,0.5V22.9z"/>
<path class="st0" d="M365.3,26.8c0,4.1,0,7.5,0.2,9.2c0.2,1.3,0.3,2.1,1.6,2.3c0.7,0.1,1.6,0.2,2,0.2c0.3,0,0.4,0.2,0.4,0.4
	c0,0.2-0.2,0.4-0.7,0.4c-2.5,0-5.3-0.2-5.5-0.2c-0.3,0-3,0.2-4.4,0.2c-0.5,0-0.7-0.1-0.7-0.4c0-0.2,0.1-0.4,0.4-0.4
	c0.4,0,1-0.1,1.4-0.2c0.9-0.2,1-1,1.2-2.3c0.2-1.8,0.3-5.1,0.3-9.2v-7.5c0-6.6,0-7.8-0.1-9.2c-0.1-1.5-0.5-2.1-1.4-2.3
	c-0.5-0.1-1.1-0.2-1.4-0.2c-0.2,0-0.4-0.2-0.4-0.4c0-0.2,0.2-0.4,0.7-0.4c1.5,0,4.2,0.1,4.5,0.1c0.2,0,3.1-0.1,4.4-0.1
	c0.5,0,0.7,0.1,0.7,0.4c0,0.2-0.2,0.4-0.4,0.4c-0.3,0-0.6,0-1.1,0.1c-1.2,0.3-1.5,0.9-1.6,2.4c0,1.4,0,2.6,0,9.2V26.8z"/>
<path class="st0" d="M387.9,37.2c4.7,0,5.9-0.8,6.9-2c0.5-0.6,0.8-1.7,0.9-2.3c0.1-0.4,0.3-0.7,0.5-0.7c0.3,0,0.4,0.2,0.4,1
	c0,1.4-0.6,3.9-0.9,4.9c-0.3,1.1-0.3,1.1-1.3,1.1c-7.4,0-14.9-0.2-22.6-0.2c-0.5,0-0.8,0-0.8-0.4c0-0.2,0.1-0.5,0.6-1.3
	c6.6-9.6,13.2-19.1,19.2-28.6h-9.3c-2.3,0-4.9-0.1-6.3,0.7c-1.6,0.8-2.4,2.4-2.5,3.4c-0.1,0.7-0.4,0.8-0.6,0.8
	c-0.2,0-0.3-0.2-0.3-0.6c0-0.5,0.7-4.4,0.9-5.7c0.1-0.6,0.2-0.8,0.4-0.8c0.4,0,0.7,0.3,1.9,0.3c4.2,0.2,6.3,0.1,7.7,0.1H395
	c0.7,0,0.9,0.1,0.9,0.4c0,0.2,0,0.5-0.3,0.8c-6.4,9.8-12.9,19.4-19.5,29.1H387.9z"/>
<path class="st0" d="M417,6.3c10,0,17.5,6.1,17.5,16c0,9.5-7.1,17.4-17.7,17.4c-12.1,0-17.3-9.1-17.3-16.8
	C399.5,16.1,404.8,6.3,417,6.3z M418,38c4,0,12-2.1,12-14.5c0-10.3-6.2-15.6-13.2-15.6c-7.4,0-12.7,4.6-12.7,13.9
	C404,31.8,410,38,418,38z"/>
<path class="st0" d="M445.6,33.4c0.1,3.5,0.5,4.6,1.7,4.9c0.8,0.2,1.8,0.3,2.2,0.3c0.2,0,0.4,0.2,0.4,0.4c0,0.3-0.3,0.4-0.8,0.4
	c-2.5,0-4.3-0.2-4.7-0.2c-0.4,0-2.3,0.2-4.3,0.2c-0.5,0-0.7-0.1-0.7-0.4c0-0.2,0.2-0.4,0.4-0.4c0.4,0,1.2,0,1.8-0.3
	c1.1-0.3,1.3-1.5,1.3-5.3V8.5c0-1.7,0.3-2.2,0.6-2.2c0.5,0,1.3,0.9,1.7,1.3c0.7,0.7,7.1,7.5,14,14.6c4.4,4.5,9.1,9.6,10.5,11
	l-0.5-21.4c0-2.8-0.3-3.7-1.7-4c-0.8-0.2-1.8-0.2-2.2-0.2c-0.3,0-0.4-0.3-0.4-0.4c0-0.3,0.4-0.3,0.9-0.3c2,0,4.1,0.1,4.6,0.1
	c0.5,0,2-0.1,3.8-0.1c0.5,0,0.8,0.1,0.8,0.3c0,0.2-0.2,0.4-0.5,0.4c-0.2,0-0.6,0-1.1,0.1c-1.5,0.3-1.6,1.2-1.6,3.7l-0.1,25
	c0,2.8-0.1,3.1-0.4,3.1c-0.5,0-0.9-0.4-3.4-2.6c-0.5-0.4-6.8-6.7-11.5-11.6c-5.1-5.4-10.1-10.6-11.5-12.1L445.6,33.4z"/>
<g>
	<path class="st0" d="M124.7,54.8v24.5h-3.2V54.8H124.7z"/>
	<path class="st0" d="M129.6,76.1c1,0.6,2.7,1.2,4.3,1.2c2.3,0,3.4-1.1,3.4-2.6c0-1.5-0.9-2.4-3.2-3.2c-3.2-1.2-4.7-2.9-4.7-5
		c0-2.8,2.3-5.2,6.1-5.2c1.8,0,3.3,0.5,4.3,1.1l-0.8,2.3c-0.7-0.4-2-1-3.6-1c-1.9,0-2.9,1.1-2.9,2.4c0,1.5,1,2.1,3.3,3
		c3,1.1,4.6,2.7,4.6,5.3c0,3.1-2.4,5.3-6.5,5.3c-1.9,0-3.7-0.5-4.9-1.2L129.6,76.1z"/>
	<path class="st0" d="M144.4,53.5h3.2v25.8h-3.2V53.5z"/>
	<path class="st0" d="M165.3,75.1c0,1.5,0.1,3,0.3,4.2h-2.9l-0.3-2.2h-0.1c-0.9,1.4-2.9,2.6-5.4,2.6c-3.6,0-5.4-2.5-5.4-5.1
		c0-4.3,3.8-6.6,10.6-6.5v-0.4c0-1.5-0.4-4.1-4-4.1c-1.7,0-3.4,0.5-4.6,1.3l-0.7-2.1c1.5-0.9,3.6-1.5,5.8-1.5c5.4,0,6.7,3.7,6.7,7.2
		V75.1z M162.2,70.4c-3.5-0.1-7.5,0.5-7.5,4c0,2.1,1.4,3.1,3,3.1c2.3,0,3.8-1.5,4.3-2.9c0.1-0.3,0.1-0.7,0.1-1V70.4z"/>
	<path class="st0" d="M170.5,66.5c0-1.9-0.1-3.3-0.1-4.8h2.8l0.1,2.8h0.1c1-1.7,2.6-3.2,5.6-3.2c2.4,0,4.2,1.5,5,3.5h0.1
		c0.5-1,1.3-1.7,2-2.3c1.1-0.8,2.2-1.2,3.9-1.2c2.4,0,5.8,1.5,5.8,7.6v10.4h-3.1v-10c0-3.4-1.3-5.4-3.8-5.4c-1.9,0-3.2,1.3-3.8,2.9
		c-0.1,0.5-0.3,1.1-0.3,1.6v10.9h-3.1V68.8c0-2.8-1.2-4.8-3.7-4.8c-2,0-3.5,1.6-4,3.2c-0.2,0.5-0.3,1-0.3,1.6v10.6h-3.1V66.5z"/>
	<path class="st0" d="M202.3,58.5c-1.2,0-2-0.9-2-2.1c0-1.1,0.8-2,2.1-2c1.2,0,2,0.9,2,2C204.4,57.5,203.6,58.5,202.3,58.5
		L202.3,58.5z M200.8,79.3V61.7h3.2v17.6H200.8z"/>
	<path class="st0" d="M221.9,78.7c-0.8,0.4-2.7,1-5.1,1c-5.3,0-8.8-3.6-8.8-9c0-5.4,3.7-9.4,9.5-9.4c1.9,0,3.6,0.5,4.4,0.9l-0.7,2.4
		c-0.8-0.4-2-0.8-3.7-0.8c-4,0-6.2,3-6.2,6.7c0,4.1,2.6,6.6,6.1,6.6c1.8,0,3-0.4,3.9-0.8L221.9,78.7z"/>
	<path class="st0" d="M233,75.5c1.4,0.9,3.5,1.6,5.6,1.6c3.2,0,5.1-1.7,5.1-4.2c0-2.3-1.3-3.6-4.6-4.8c-4-1.5-6.5-3.6-6.5-7
		c0-3.8,3.2-6.7,7.9-6.7c2.5,0,4.3,0.6,5.4,1.2l-0.9,2.6c-0.8-0.5-2.4-1.2-4.6-1.2c-3.3,0-4.6,2-4.6,3.7c0,2.3,1.5,3.4,4.9,4.7
		c4.1,1.6,6.2,3.6,6.2,7.2c0,3.8-2.8,7.1-8.6,7.1c-2.4,0-4.9-0.7-6.3-1.6L233,75.5z"/>
	<path class="st0" d="M263.9,75.1c0,1.5,0.1,3,0.3,4.2h-2.9l-0.3-2.2h-0.1c-0.9,1.4-2.9,2.6-5.4,2.6c-3.6,0-5.4-2.5-5.4-5.1
		c0-4.3,3.8-6.6,10.6-6.5v-0.4c0-1.5-0.4-4.1-4-4.1c-1.7,0-3.4,0.5-4.6,1.3l-0.7-2.1c1.5-0.9,3.6-1.5,5.8-1.5c5.4,0,6.7,3.7,6.7,7.2
		V75.1z M260.7,70.4c-3.5-0.1-7.5,0.5-7.5,4c0,2.1,1.4,3.1,3,3.1c2.3,0,3.8-1.5,4.3-2.9c0.1-0.3,0.1-0.7,0.1-1V70.4z"/>
	<path class="st0" d="M272.7,57.5v4.2h4.6v2.4h-4.6v9.5c0,2.2,0.6,3.4,2.4,3.4c0.9,0,1.4-0.1,1.9-0.2l0.1,2.4
		c-0.6,0.2-1.6,0.4-2.8,0.4c-1.5,0-2.7-0.5-3.5-1.3c-0.9-1-1.2-2.5-1.2-4.6v-9.6h-2.7v-2.4h2.7v-3.2L272.7,57.5z"/>
	<path class="st0" d="M295.6,74.5c0,1.8,0,3.4,0.1,4.8h-2.8l-0.2-2.9h-0.1c-0.8,1.4-2.7,3.3-5.8,3.3c-2.8,0-6.1-1.6-6.1-7.7V61.7
		h3.2v9.7c0,3.3,1.1,5.6,3.9,5.6c2.1,0,3.6-1.5,4.2-2.9c0.2-0.4,0.3-1,0.3-1.6V61.7h3.2V74.5z"/>
	<path class="st0" d="M301,67.2c0-2.1,0-3.9-0.1-5.5h2.8l0.1,3.5h0.1c0.8-2.4,2.8-3.9,4.9-3.9c0.3,0,0.6,0,0.9,0.1v3
		c-0.4,0-0.7-0.1-1.1-0.1c-2.3,0-3.9,1.7-4.3,4.1c-0.1,0.5-0.1,1-0.1,1.5v9.4h-3.2L301,67.2z"/>
	<path class="st0" d="M327.8,53.5v21.3c0,1.6,0,3.3,0.1,4.6h-2.9l-0.1-3.1h-0.1c-1,2-3.1,3.5-6,3.5c-4.3,0-7.6-3.6-7.6-9
		c0-5.9,3.6-9.5,7.9-9.5c2.7,0,4.5,1.3,5.3,2.7h0.1V53.5H327.8z M324.6,68.9c0-0.4,0-0.9-0.1-1.4c-0.5-2-2.2-3.7-4.6-3.7
		c-3.3,0-5.3,2.9-5.3,6.8c0,3.6,1.8,6.5,5.2,6.5c2.1,0,4.1-1.5,4.7-3.8c0.1-0.4,0.1-0.9,0.1-1.4V68.9z"/>
	<path class="st0" d="M345.5,75.1c0,1.5,0.1,3,0.3,4.2h-2.9l-0.3-2.2h-0.1c-0.9,1.4-2.9,2.6-5.4,2.6c-3.6,0-5.4-2.5-5.4-5.1
		c0-4.3,3.8-6.6,10.6-6.5v-0.4c0-1.5-0.4-4.1-4-4.1c-1.7,0-3.4,0.5-4.6,1.3l-0.7-2.1c1.5-0.9,3.6-1.5,5.8-1.5c5.4,0,6.7,3.7,6.7,7.2
		V75.1z M342.4,70.4c-3.5-0.1-7.5,0.5-7.5,4c0,2.1,1.4,3.1,3,3.1c2.3,0,3.8-1.5,4.3-2.9c0.1-0.3,0.1-0.7,0.1-1V70.4z"/>
	<path class="st0" d="M351.4,61.7l3.8,10.4c0.4,1.2,0.9,2.5,1.2,3.6h0.1c0.3-1.1,0.7-2.4,1.1-3.7l3.5-10.3h3.4l-4.8,12.6
		c-2.3,6-3.9,9.1-6,11.1c-1.6,1.3-3.1,1.9-3.9,2l-0.8-2.7c0.8-0.2,1.9-0.7,2.8-1.6c0.9-0.7,1.9-1.9,2.7-3.6c0.1-0.3,0.3-0.5,0.3-0.8
		c0-0.2-0.1-0.4-0.3-0.8l-6.5-16.3H351.4z"/>
	<path class="st0" d="M374.8,75.5c1.4,0.9,3.5,1.6,5.6,1.6c3.2,0,5.1-1.7,5.1-4.2c0-2.3-1.3-3.6-4.6-4.8c-4-1.5-6.5-3.6-6.5-7
		c0-3.8,3.2-6.7,7.9-6.7c2.5,0,4.3,0.6,5.4,1.2l-0.9,2.6c-0.8-0.5-2.4-1.2-4.6-1.2c-3.3,0-4.6,2-4.6,3.7c0,2.3,1.5,3.4,4.9,4.7
		c4.1,1.6,6.2,3.6,6.2,7.2c0,3.8-2.8,7.1-8.6,7.1c-2.4,0-4.9-0.7-6.3-1.6L374.8,75.5z"/>
	<path class="st0" d="M405.6,78.7c-0.8,0.4-2.7,1-5.1,1c-5.3,0-8.8-3.6-8.8-9c0-5.4,3.7-9.4,9.5-9.4c1.9,0,3.6,0.5,4.4,0.9l-0.7,2.4
		c-0.8-0.4-2-0.8-3.7-0.8c-4,0-6.2,3-6.2,6.7c0,4.1,2.6,6.6,6.1,6.6c1.8,0,3-0.4,3.9-0.8L405.6,78.7z"/>
	<path class="st0" d="M409.4,53.5h3.2v11h0.1c0.5-0.9,1.3-1.7,2.3-2.3c0.9-0.6,2.1-0.9,3.3-0.9c2.4,0,6.1,1.5,6.1,7.5v10.5h-3.2
		V69.2c0-2.9-1.1-5.2-4.1-5.2c-2.1,0-3.7,1.5-4.3,3.2c-0.2,0.4-0.2,0.9-0.2,1.5v10.6h-3.2V53.5z"/>
	<path class="st0" d="M436.7,79.7c-4.7,0-8.4-3.5-8.4-9.1c0-5.9,3.9-9.4,8.7-9.4c5.1,0,8.5,3.7,8.5,9
		C445.5,76.9,440.9,79.7,436.7,79.7L436.7,79.7z M436.8,77.3c3.1,0,5.4-2.9,5.4-6.9c0-3-1.5-6.7-5.3-6.7c-3.7,0-5.4,3.5-5.4,6.8
		C431.5,74.4,433.7,77.3,436.8,77.3L436.8,77.3z"/>
	<path class="st0" d="M456.7,79.7c-4.7,0-8.4-3.5-8.4-9.1c0-5.9,3.9-9.4,8.7-9.4c5.1,0,8.5,3.7,8.5,9
		C465.5,76.9,461,79.7,456.7,79.7L456.7,79.7z M456.8,77.3c3.1,0,5.3-2.9,5.3-6.9c0-3-1.5-6.7-5.3-6.7c-3.7,0-5.4,3.5-5.4,6.8
		C451.5,74.4,453.7,77.3,456.8,77.3L456.8,77.3z"/>
	<path class="st0" d="M469.5,53.5h3.2v25.8h-3.2V53.5z"/>
</g>
<g>
	<path class="st0" d="M25.4,32.3C19.4,39.2,9.7,41,1.9,37.1c0.9,1.3,2,2.5,3.2,3.5c8.2,7,20.4,6.1,27.4-2.1c7-8.2,6.1-20.4-2.1-27.4
		c-1.2-1.1-2.6-1.9-4-2.6C31.5,15.5,31.3,25.4,25.4,32.3z"/>
</g>
<path class="st0" d="M15.7,19c1.8,1.5,2,4.1,0.5,5.9c-1.5,1.8-4.1,2-5.9,0.5c-1.8-1.5-2-4.1-0.5-5.9C11.3,17.7,13.9,17.5,15.7,19z"
	/>
<g>
	<path class="st0" d="M60.6,20.3c8.9,1.8,17.7-2.8,21.5-10.6c0.1,1.6-0.1,3.2-0.4,4.7c-2.2,10.5-12.5,17.3-23,15.1
		c-10.5-2.2-17.3-12.5-15.1-23C43.9,5,44.4,3.5,45,2.1C45.4,10.8,51.6,18.5,60.6,20.3z"/>
</g>
<path class="st0" d="M60.1,3.9c-0.5,2.3,1,4.5,3.3,4.9c2.3,0.5,4.5-1,4.9-3.3c0.5-2.3-1-4.5-3.3-4.9C62.7,0.1,60.5,1.6,60.1,3.9z"/>
<g>
	<path class="st0" d="M34.8,60.1c-8.9-1.8-17.7,2.8-21.5,10.6c-0.1-1.6,0.1-3.2,0.4-4.7c2.2-10.5,12.5-17.3,23-15.1
		C47.3,53,54,63.3,51.9,73.8c-0.3,1.6-0.8,3.1-1.5,4.5C50,69.6,43.8,61.9,34.8,60.1z"/>
</g>
<path class="st0" d="M35.3,76.5c0.5-2.3-1-4.5-3.3-4.9c-2.3-0.5-4.5,1-4.9,3.3c-0.5,2.3,1,4.5,3.3,4.9
	C32.7,80.2,34.9,78.8,35.3,76.5z"/>
<g>
	<path class="st0" d="M70,48c5.9-6.9,15.7-8.6,23.5-4.7c-0.9-1.3-2-2.5-3.2-3.5c-8.2-7-20.4-6.1-27.4,2.1c-7,8.2-6.1,20.4,2.1,27.4
		c1.2,1.1,2.6,1.9,4,2.6C63.9,64.8,64.1,54.9,70,48z"/>
</g>
<path class="st0" d="M79.7,61.3c-1.8-1.5-2-4.1-0.5-5.9c1.5-1.8,4.1-2,5.9-0.5c1.8,1.5,2,4.1,0.5,5.9C84.1,62.6,81.5,62.8,79.7,61.3
	z"/>
</svg>
